<svg width="20" height="20" viewBox="0 0 20 20" fill="none" xmlns="http://www.w3.org/2000/svg">
<g>
<path fill-rule="evenodd" clip-rule="evenodd" d="M9.243 3.03C9.50026 3.09445 9.72137 3.25846 9.85771 3.48594C9.99405 3.71342 10.0344 3.98574 9.97 4.243L9.53 6H12.47L13.03 3.757C13.0611 3.62881 13.1173 3.50804 13.1954 3.40166C13.2734 3.29528 13.3717 3.20539 13.4846 3.13717C13.5975 3.06895 13.7228 3.02374 13.8533 3.00416C13.9837 2.98457 14.1168 2.99099 14.2447 3.02305C14.3727 3.05511 14.4931 3.11217 14.5989 3.19095C14.7047 3.26972 14.7939 3.36866 14.8613 3.48206C14.9287 3.59546 14.973 3.72107 14.9917 3.85167C15.0103 3.98227 15.003 4.11526 14.97 4.243L14.53 6H17C17.2652 6 17.5196 6.10536 17.7071 6.29289C17.8946 6.48043 18 6.73478 18 7C18 7.26522 17.8946 7.51957 17.7071 7.70711C17.5196 7.89464 17.2652 8 17 8H14.03L13.03 12H15C15.2652 12 15.5196 12.1054 15.7071 12.2929C15.8946 12.4804 16 12.7348 16 13C16 13.2652 15.8946 13.5196 15.7071 13.7071C15.5196 13.8946 15.2652 14 15 14H12.53L11.97 16.242C11.94 16.3713 11.8846 16.4934 11.8069 16.6011C11.7292 16.7088 11.6309 16.7999 11.5177 16.8692C11.4044 16.9385 11.2785 16.9845 11.1473 17.0046C11.016 17.0247 10.8821 17.0185 10.7533 16.9863C10.6245 16.9541 10.5034 16.8965 10.3971 16.817C10.2907 16.7376 10.2013 16.6377 10.134 16.5233C10.0666 16.4088 10.0228 16.2821 10.0049 16.1506C9.98707 16.019 9.9956 15.8852 10.03 15.757L10.47 14H7.53L6.97 16.242C6.94001 16.3713 6.88457 16.4934 6.80691 16.6011C6.72925 16.7088 6.63092 16.7999 6.51767 16.8692C6.40441 16.9385 6.2785 16.9845 6.14726 17.0046C6.01603 17.0247 5.88211 17.0185 5.75331 16.9863C5.62451 16.9541 5.50341 16.8965 5.39707 16.817C5.29074 16.7376 5.2013 16.6377 5.13397 16.5233C5.06664 16.4088 5.02277 16.2821 5.00492 16.1506C4.98707 16.019 4.9956 15.8852 5.03 15.757L5.47 14H3C2.73478 14 2.48043 13.8946 2.29289 13.7071C2.10536 13.5196 2 13.2652 2 13C2 12.7348 2.10536 12.4804 2.29289 12.2929C2.48043 12.1054 2.73478 12 3 12H5.97L6.97 8H5C4.73478 8 4.48043 7.89464 4.29289 7.70711C4.10536 7.51957 4 7.26522 4 7C4 6.73478 4.10536 6.48043 4.29289 6.29289C4.48043 6.10536 4.73478 6 5 6H7.47L8.03 3.757C8.09445 3.49974 8.25846 3.27863 8.48594 3.14229C8.71342 3.00595 8.98574 2.96556 9.243 3.03ZM9.03 8L8.03 12H10.968L11.968 8H9.031H9.03Z" fill="currentColor"/>
</g>
</svg>
