<svg xmlns="http://www.w3.org/2000/svg" fill="currentColor" viewBox="0 0 32 32"><path d="M2 14.354h10.854a1.5 1.5 0 0 0 1.5-1.5V2a1.5 1.5 0 0 0-1.5-1.5H2A1.5 1.5 0 0 0 .5 2v10.854a1.5 1.5 0 0 0 1.5 1.5zM3.5 3.5h7.854v7.854H3.5V3.5zM30 .5H19.146a1.5 1.5 0 0 0-1.5 1.5v10.854a1.5 1.5 0 0 0 1.5 1.5H30a1.5 1.5 0 0 0 1.5-1.5V2A1.5 1.5 0 0 0 30 .5zm-1.5 10.854h-7.854V3.5H28.5v7.854zM2 31.5h10.854a1.5 1.5 0 0 0 1.5-1.5V19.146a1.5 1.5 0 0 0-1.5-1.5H2a1.5 1.5 0 0 0-1.5 1.5V30A1.5 1.5 0 0 0 2 31.5zm1.5-10.854h7.854V28.5H3.5v-7.854zm26.5-3H19.146a1.5 1.5 0 0 0-1.5 1.5V30a1.5 1.5 0 0 0 1.5 1.5H30a1.5 1.5 0 0 0 1.5-1.5V19.146a1.5 1.5 0 0 0-1.5-1.5zM28.5 28.5h-7.854v-7.854H28.5V28.5z"></path></svg>