<svg role="img" height="16" width="16" viewBox="0 0 16 16" fill="currentColor"><path d="M8 .355a.75.75 0 0 1 .696.47l1.812 4.493 4.79.306a.75.75 0 0 1 .43 1.326l-3.582 2.963 1.067 4.82a.75.75 0 0 1-1.139.792L8 12.895l-4.074 2.63a.75.75 0 0 1-1.139-.792l1.067-4.82L.272 6.95a.75.75 0 0 1 .43-1.326l4.79-.306L7.304.825A.75.75 0 0 1 8 .355zm0 2.756L6.707 6.316a.75.75 0 0 1-.648.468L2.686 7l2.478 2.05a.75.75 0 0 1 .254.74l-.772 3.485 2.947-1.902a.75.75 0 0 1 .814 0l2.947 1.902-.772-3.485a.75.75 0 0 1 .254-.74L13.314 7l-3.373-.215a.75.75 0 0 1-.648-.468L8 3.11z"></path></svg>